<svg xmlns="http://www.w3.org/2000/svg" viewBox="0 0 512 512">
  <defs>
    <radialGradient id="bg" cx="50%" cy="40%" r="65%">
      <stop offset="0%" stop-color="#1c2750"/>
      <stop offset="55%" stop-color="#0a1230"/>
      <stop offset="100%" stop-color="#02040d"/>
    </radialGradient>
    <radialGradient id="moonGlow" cx="50%" cy="50%" r="50%">
      <stop offset="0%" stop-color="#fff7d6" stop-opacity="0.7"/>
      <stop offset="100%" stop-color="#fff7d6" stop-opacity="0"/>
    </radialGradient>
    <radialGradient id="moon" cx="40%" cy="38%" r="60%">
      <stop offset="0%" stop-color="#ffffff"/>
      <stop offset="60%" stop-color="#f4ecd0"/>
      <stop offset="100%" stop-color="#a99a78"/>
    </radialGradient>
  </defs>
  <rect width="512" height="512" rx="112" fill="url(#bg)"/>
  <g fill="#ffffff">
    <circle cx="80"  cy="120" r="2.2" opacity="0.85"/>
    <circle cx="140" cy="80"  r="1.4" opacity="0.7"/>
    <circle cx="200" cy="140" r="1.8" opacity="0.9"/>
    <circle cx="380" cy="100" r="2.6" opacity="0.95"/>
    <circle cx="430" cy="170" r="1.6" opacity="0.7"/>
    <circle cx="60"  cy="260" r="1.6" opacity="0.65"/>
    <circle cx="120" cy="380" r="2.2" opacity="0.9"/>
    <circle cx="220" cy="430" r="1.5" opacity="0.7"/>
    <circle cx="350" cy="400" r="2.0" opacity="0.85"/>
    <circle cx="450" cy="340" r="1.5" opacity="0.7"/>
    <circle cx="290" cy="60"  r="1.2" opacity="0.6"/>
    <circle cx="40"  cy="430" r="1.2" opacity="0.55"/>
  </g>
  <g stroke="#7aa2ff" stroke-width="1.4" stroke-linecap="round" opacity="0.55" fill="none">
    <line x1="80" y1="120" x2="140" y2="80"/>
    <line x1="140" y1="80" x2="200" y2="140"/>
    <line x1="380" y1="100" x2="430" y2="170"/>
    <line x1="120" y1="380" x2="220" y2="430"/>
    <line x1="220" y1="430" x2="350" y2="400"/>
    <line x1="350" y1="400" x2="450" y2="340"/>
  </g>
  <circle cx="320" cy="240" r="170" fill="url(#moonGlow)"/>
  <circle cx="320" cy="240" r="110" fill="url(#moon)"/>
  <circle cx="290" cy="225" r="118" fill="url(#bg)"/>
</svg>
